<svg width="16" height="16" viewBox="0 0 16 16" fill="none" xmlns="http://www.w3.org/2000/svg">
<g opacity="0.452602">
<rect opacity="0.01" width="16" height="16" fill="black"/>
<path fill-rule="evenodd" clip-rule="evenodd" d="M8.98924 8L13.9638 2.2411C14.0472 2.1454 13.9771 2 13.8482 2H12.336C12.2469 2 12.1616 2.03865 12.1029 2.10491L8 6.85521L3.89713 2.10491C3.84028 2.03865 3.755 2 3.66404 2H2.15176C2.02289 2 1.95277 2.1454 2.03616 2.2411L7.01076 8L2.03616 13.7589C1.95277 13.8546 2.02289 14 2.15176 14H3.66404C3.75311 14 3.83839 13.9613 3.89713 13.8951L8 9.14479L12.1029 13.8951C12.1597 13.9613 12.245 14 12.336 14H13.8482C13.9771 14 14.0472 13.8546 13.9638 13.7589L8.98924 8Z" fill="black"/>
</g>
</svg>
