<svg width="14" height="13" viewBox="0 0 14 13" fill="none" xmlns="http://www.w3.org/2000/svg">
<path d="M2.33333 9.52241e-09C1.71449 9.52241e-09 1.121 0.256807 0.683417 0.713927C0.245833 1.17105 9.11547e-09 1.79103 9.11547e-09 2.4375V6.5C-1.56292e-05 6.60671 0.0200905 6.71238 0.0591705 6.81097C0.0982505 6.90956 0.155539 6.99915 0.227764 7.07461C0.299989 7.15007 0.385735 7.20993 0.480107 7.25077C0.57448 7.2916 0.675629 7.31263 0.777778 7.31263C0.879927 7.31263 0.981076 7.2916 1.07545 7.25077C1.16982 7.20993 1.25557 7.15007 1.32779 7.07461C1.40002 6.99915 1.4573 6.90956 1.49638 6.81097C1.53546 6.71238 1.55557 6.60671 1.55556 6.5V2.4375C1.55556 2.22201 1.6375 2.01535 1.78336 1.86298C1.92922 1.7106 2.12705 1.625 2.33333 1.625H6.22222C6.32437 1.62502 6.42552 1.60401 6.5199 1.56319C6.61428 1.52236 6.70003 1.46252 6.77227 1.38707C6.84451 1.31162 6.90181 1.22204 6.9409 1.12346C6.98 1.02487 7.00012 0.919209 7.00012 0.8125C7.00012 0.70579 6.98 0.600126 6.9409 0.501541C6.90181 0.402956 6.84451 0.313381 6.77227 0.237932C6.70003 0.162482 6.61428 0.102637 6.5199 0.0618121C6.42552 0.0209874 6.32437 -1.6327e-05 6.22222 9.52241e-09H2.33333ZM11.6667 13C12.2855 13 12.879 12.7432 13.3166 12.2861C13.7542 11.829 14 11.209 14 10.5625V7.3125C14 7.20579 13.9799 7.10012 13.9408 7.00153C13.9017 6.90294 13.8445 6.81336 13.7722 6.7379C13.7 6.66244 13.6143 6.60258 13.5199 6.56174C13.4255 6.5209 13.3244 6.49988 13.2222 6.49988C13.1201 6.49988 13.0189 6.5209 12.9246 6.56174C12.8302 6.60258 12.7444 6.66244 12.6722 6.7379C12.6 6.81336 12.5427 6.90294 12.5036 7.00153C12.4645 7.10012 12.4444 7.20579 12.4444 7.3125V10.5625C12.4444 10.778 12.3625 10.9847 12.2166 11.137C12.0708 11.2894 11.8729 11.375 11.6667 11.375H8.16667C8.06452 11.375 7.96337 11.396 7.86899 11.4368C7.77461 11.4776 7.68885 11.5375 7.61662 11.6129C7.54438 11.6884 7.48708 11.778 7.44799 11.8765C7.40889 11.9751 7.38877 12.0808 7.38877 12.1875C7.38877 12.2942 7.40889 12.3999 7.44799 12.4985C7.48708 12.597 7.54438 12.6866 7.61662 12.7621C7.68885 12.8375 7.77461 12.8974 7.86899 12.9382C7.96337 12.979 8.06452 13 8.16667 13H11.6667Z" fill="#14101C"/>
</svg>
