<svg width="20" height="20" viewBox="0 0 20 20" fill="none" xmlns="http://www.w3.org/2000/svg">
<path fill-rule="evenodd" clip-rule="evenodd" d="M10.8159 10.8702C11.126 10.6914 11.3173 10.3608 11.3175 10.0028C11.3179 9.44943 10.8697 9.00048 10.3163 9.00006C9.76293 8.99964 9.31399 9.4479 9.31357 10.0013C9.3133 10.3592 9.50402 10.6902 9.8139 10.8694C10.1238 11.0486 10.5057 11.0489 10.8159 10.8702ZM7.0036 10.002C7.01334 10.3665 6.82439 10.7074 6.51024 10.8923C6.19608 11.0772 5.80628 11.0769 5.49241 10.8915C5.17853 10.7061 4.99011 10.3649 5.0004 10.0005C5.01572 9.45808 5.46009 9.02641 6.00274 9.02683C6.5454 9.02724 6.98911 9.45958 7.0036 10.002ZM15.6307 10.0019C15.6405 10.3664 15.4515 10.7073 15.1373 10.8923C14.8232 11.0772 14.4333 11.0769 14.1194 10.8915C13.8056 10.7061 13.6171 10.3648 13.6275 10.0004C13.6429 9.458 14.0872 9.02641 14.6298 9.02683C15.1724 9.02724 15.6161 9.45951 15.6307 10.0019Z" fill="black"/>
</svg>
