<svg width="14" height="14" viewBox="0 0 14 14" fill="none" xmlns="http://www.w3.org/2000/svg">
<g clip-path="url(#clip0_30_1294)">
<path d="M7.4725 3.07108e-07C7.60612 -0.000144133 7.73477 0.0506664 7.83223 0.142078C7.92969 0.233489 7.98862 0.358623 7.99703 0.491979C8.00543 0.625334 7.96267 0.756877 7.87746 0.859801C7.79225 0.962725 7.671 1.02928 7.53842 1.04592L7.4725 1.05H1.05V12.95H12.95V6.25917C12.9501 6.13143 12.9968 6.00813 13.0813 5.91234C13.1658 5.81656 13.2824 5.75487 13.4091 5.73883L13.475 5.73475C13.6028 5.73473 13.7263 5.78136 13.8222 5.86588C13.9181 5.9504 13.9799 6.06701 13.9959 6.19383L14 6.25975V13.475C14 13.6028 13.9534 13.7263 13.8689 13.8222C13.7843 13.9181 13.6677 13.9799 13.5409 13.9959L13.475 14H0.525C0.397165 14 0.273716 13.9534 0.177811 13.8689C0.0819055 13.7843 0.0201337 13.6677 0.00408334 13.5409L4.83321e-09 13.475V0.525C-1.73322e-05 0.397166 0.0466079 0.273717 0.131129 0.177811C0.215651 0.0819058 0.33226 0.020134 0.459083 0.00408365L0.525 3.07108e-07H7.4725ZM13.846 0.154C13.9356 0.243747 13.9897 0.362895 13.9983 0.489425C14.0069 0.615955 13.9693 0.741314 13.8927 0.842334L13.846 0.896L5.67933 9.06267C5.58513 9.15607 5.45906 9.21034 5.32647 9.21458C5.19388 9.21882 5.0646 9.1727 4.96462 9.08551C4.86465 8.99832 4.80139 8.87651 4.78756 8.74458C4.77373 8.61264 4.81036 8.48036 4.89008 8.37433L4.93675 8.32067L13.1034 0.154C13.1522 0.105231 13.2101 0.0665448 13.2738 0.0401504C13.3375 0.013756 13.4058 0.000170749 13.4747 0.000170749C13.5437 0.000170749 13.6119 0.013756 13.6757 0.0401504C13.7394 0.0665448 13.7972 0.105231 13.846 0.154Z" fill="black" fill-opacity="0.85"/>
</g>
<defs>
<clipPath id="clip0_30_1294">
<rect width="14" height="14" fill="white"/>
</clipPath>
</defs>
</svg>
