<svg width="32" height="32" viewBox="0 0 32 32" fill="none" xmlns="http://www.w3.org/2000/svg">
<rect width="32" height="32" rx="6" fill="#126EE3"/>
<path d="M23.5693 15.016C24.1332 15.5998 24.1487 16.5405 23.585 17.1244L18.1182 22.7845C17.8716 23.0397 17.4721 23.0398 17.2256 22.7845C16.979 22.5293 16.979 22.115 17.2256 21.8597L22.2998 16.6215L8.62695 16.6215C8.28094 16.6215 8.00002 16.3313 8 15.973C8 15.6147 8.28093 15.3246 8.62695 15.3246L22.1123 15.3246L17.0225 10.0697C16.9044 9.94994 16.8363 9.7867 16.834 9.6156C16.8375 9.35614 16.99 9.12366 17.2217 9.02478C17.4535 8.92595 17.7204 8.97978 17.8994 9.1615L23.5693 15.016Z" fill="white"/>
</svg>
